<mxfile host="app.diagrams.net" agent="Mozilla/5.0 (Macintosh; Intel Mac OS X 10_15_7) AppleWebKit/605.1.15 (KHTML, like Gecko) Version/17.5 Safari/605.1.15" version="24.8.6">
  <diagram name="Page-1" id="2YBvvXClWsGukQMizWep">
    <mxGraphModel dx="1363" dy="924" grid="1" gridSize="10" guides="1" tooltips="1" connect="1" arrows="1" fold="1" page="1" pageScale="1" pageWidth="850" pageHeight="1100" math="0" shadow="0">
      <root>
        <mxCell id="0" />
        <mxCell id="1" parent="0" />
        <mxCell id="t9KaYm3IcildCPDt8CfC-64" style="edgeStyle=orthogonalEdgeStyle;rounded=0;orthogonalLoop=1;jettySize=auto;html=1;" edge="1" parent="1" source="t9KaYm3IcildCPDt8CfC-1">
          <mxGeometry relative="1" as="geometry">
            <mxPoint x="400" y="275" as="targetPoint" />
          </mxGeometry>
        </mxCell>
        <mxCell id="t9KaYm3IcildCPDt8CfC-1" value="Frontend" style="rounded=1;whiteSpace=wrap;html=1;" vertex="1" parent="1">
          <mxGeometry x="110" y="220" width="200" height="110" as="geometry" />
        </mxCell>
        <mxCell id="t9KaYm3IcildCPDt8CfC-2" value="User" style="shape=umlActor;verticalLabelPosition=bottom;verticalAlign=top;html=1;outlineConnect=0;" vertex="1" parent="1">
          <mxGeometry x="60" y="190" width="30" height="60" as="geometry" />
        </mxCell>
        <mxCell id="t9KaYm3IcildCPDt8CfC-45" style="edgeStyle=orthogonalEdgeStyle;rounded=0;orthogonalLoop=1;jettySize=auto;html=1;" edge="1" parent="1" source="t9KaYm3IcildCPDt8CfC-3">
          <mxGeometry relative="1" as="geometry">
            <mxPoint x="600" y="275" as="targetPoint" />
          </mxGeometry>
        </mxCell>
        <mxCell id="t9KaYm3IcildCPDt8CfC-3" value="Amazon API Gateway" style="sketch=0;outlineConnect=0;fontColor=#232F3E;gradientColor=none;strokeColor=#ffffff;fillColor=#232F3E;dashed=0;verticalLabelPosition=middle;verticalAlign=bottom;align=center;html=1;whiteSpace=wrap;fontSize=10;fontStyle=1;spacing=3;shape=mxgraph.aws4.productIcon;prIcon=mxgraph.aws4.api_gateway;" vertex="1" parent="1">
          <mxGeometry x="410" y="220" width="80" height="110" as="geometry" />
        </mxCell>
        <mxCell id="t9KaYm3IcildCPDt8CfC-52" style="edgeStyle=orthogonalEdgeStyle;rounded=0;orthogonalLoop=1;jettySize=auto;html=1;" edge="1" parent="1" source="t9KaYm3IcildCPDt8CfC-20">
          <mxGeometry relative="1" as="geometry">
            <mxPoint x="750" y="276" as="targetPoint" />
          </mxGeometry>
        </mxCell>
        <mxCell id="t9KaYm3IcildCPDt8CfC-20" value="" style="outlineConnect=0;dashed=0;verticalLabelPosition=bottom;verticalAlign=top;align=center;html=1;shape=mxgraph.aws3.lambda_function;fillColor=#F58534;gradientColor=none;" vertex="1" parent="1">
          <mxGeometry x="610" y="240" width="69" height="72" as="geometry" />
        </mxCell>
        <mxCell id="t9KaYm3IcildCPDt8CfC-21" value="authorizer" style="text;html=1;align=center;verticalAlign=middle;whiteSpace=wrap;rounded=0;" vertex="1" parent="1">
          <mxGeometry x="610" y="330" width="60" height="30" as="geometry" />
        </mxCell>
        <mxCell id="t9KaYm3IcildCPDt8CfC-22" value="" style="outlineConnect=0;dashed=0;verticalLabelPosition=bottom;verticalAlign=top;align=center;html=1;shape=mxgraph.aws3.lambda_function;fillColor=#F58534;gradientColor=none;" vertex="1" parent="1">
          <mxGeometry x="890" y="160" width="69" height="72" as="geometry" />
        </mxCell>
        <mxCell id="t9KaYm3IcildCPDt8CfC-23" value="lambda books" style="text;html=1;align=center;verticalAlign=middle;whiteSpace=wrap;rounded=0;" vertex="1" parent="1">
          <mxGeometry x="894.5" y="250" width="60" height="30" as="geometry" />
        </mxCell>
        <mxCell id="t9KaYm3IcildCPDt8CfC-24" value="" style="outlineConnect=0;dashed=0;verticalLabelPosition=bottom;verticalAlign=top;align=center;html=1;shape=mxgraph.aws3.lambda_function;fillColor=#F58534;gradientColor=none;" vertex="1" parent="1">
          <mxGeometry x="890" y="320" width="69" height="72" as="geometry" />
        </mxCell>
        <mxCell id="t9KaYm3IcildCPDt8CfC-25" value="lambda audios&lt;span style=&quot;caret-color: rgba(0, 0, 0, 0); color: rgba(0, 0, 0, 0); font-family: monospace; font-size: 0px; text-align: start; white-space: nowrap;&quot;&gt;%3CmxGraphModel%3E%3Croot%3E%3CmxCell%20id%3D%220%22%2F%3E%3CmxCell%20id%3D%221%22%20parent%3D%220%22%2F%3E%3CmxCell%20id%3D%222%22%20value%3D%22%22%20style%3D%22outlineConnect%3D0%3Bdashed%3D0%3BverticalLabelPosition%3Dbottom%3BverticalAlign%3Dtop%3Balign%3Dcenter%3Bhtml%3D1%3Bshape%3Dmxgraph.aws3.lambda_function%3BfillColor%3D%23F58534%3BgradientColor%3Dnone%3B%22%20vertex%3D%221%22%20parent%3D%221%22%3E%3CmxGeometry%20x%3D%22490%22%20y%3D%22460%22%20width%3D%2269%22%20height%3D%2272%22%20as%3D%22geometry%22%2F%3E%3C%2FmxCell%3E%3CmxCell%20id%3D%223%22%20value%3D%22books%22%20style%3D%22text%3Bhtml%3D1%3Balign%3Dcenter%3BverticalAlign%3Dmiddle%3BwhiteSpace%3Dwrap%3Brounded%3D0%3B%22%20vertex%3D%221%22%20parent%3D%221%22%3E%3CmxGeometry%20x%3D%22494.5%22%20y%3D%22550%22%20width%3D%2260%22%20height%3D%2230%22%20as%3D%22geometry%22%2F%3E%3C%2FmxCell%3E%3C%2Froot%3E%3C%2FmxGraphModel%3E&lt;/span&gt;" style="text;html=1;align=center;verticalAlign=middle;whiteSpace=wrap;rounded=0;" vertex="1" parent="1">
          <mxGeometry x="894.5" y="410" width="60" height="30" as="geometry" />
        </mxCell>
        <mxCell id="t9KaYm3IcildCPDt8CfC-26" value="" style="outlineConnect=0;dashed=0;verticalLabelPosition=bottom;verticalAlign=top;align=center;html=1;shape=mxgraph.aws3.lambda_function;fillColor=#F58534;gradientColor=none;" vertex="1" parent="1">
          <mxGeometry x="890" y="476" width="69" height="72" as="geometry" />
        </mxCell>
        <mxCell id="t9KaYm3IcildCPDt8CfC-27" value="lambda pages" style="text;html=1;align=center;verticalAlign=middle;whiteSpace=wrap;rounded=0;" vertex="1" parent="1">
          <mxGeometry x="894.5" y="566" width="60" height="30" as="geometry" />
        </mxCell>
        <mxCell id="t9KaYm3IcildCPDt8CfC-28" value="" style="outlineConnect=0;dashed=0;verticalLabelPosition=bottom;verticalAlign=top;align=center;html=1;shape=mxgraph.aws3.lambda_function;fillColor=#F58534;gradientColor=none;" vertex="1" parent="1">
          <mxGeometry x="1315" y="230" width="69" height="72" as="geometry" />
        </mxCell>
        <mxCell id="t9KaYm3IcildCPDt8CfC-29" value="lambda&amp;nbsp;&lt;div&gt;s3&lt;/div&gt;" style="text;html=1;align=center;verticalAlign=middle;whiteSpace=wrap;rounded=0;" vertex="1" parent="1">
          <mxGeometry x="1319.5" y="320" width="60" height="30" as="geometry" />
        </mxCell>
        <mxCell id="t9KaYm3IcildCPDt8CfC-38" value="" style="edgeStyle=segmentEdgeStyle;endArrow=classic;html=1;curved=0;rounded=0;endSize=8;startSize=8;sourcePerimeterSpacing=0;targetPerimeterSpacing=0;" edge="1" parent="1">
          <mxGeometry width="100" relative="1" as="geometry">
            <mxPoint x="750" y="200" as="sourcePoint" />
            <mxPoint x="880" y="200" as="targetPoint" />
            <Array as="points">
              <mxPoint x="780" y="200" />
              <mxPoint x="780" y="200" />
            </Array>
          </mxGeometry>
        </mxCell>
        <mxCell id="t9KaYm3IcildCPDt8CfC-39" value="" style="endArrow=classic;html=1;rounded=0;" edge="1" parent="1">
          <mxGeometry width="50" height="50" relative="1" as="geometry">
            <mxPoint x="750" y="364.5" as="sourcePoint" />
            <mxPoint x="880" y="365" as="targetPoint" />
          </mxGeometry>
        </mxCell>
        <mxCell id="t9KaYm3IcildCPDt8CfC-41" value="" style="edgeStyle=segmentEdgeStyle;endArrow=classic;html=1;curved=0;rounded=0;endSize=8;startSize=8;sourcePerimeterSpacing=0;targetPerimeterSpacing=0;" edge="1" parent="1">
          <mxGeometry width="100" relative="1" as="geometry">
            <mxPoint x="750" y="520" as="sourcePoint" />
            <mxPoint x="880" y="520" as="targetPoint" />
            <Array as="points">
              <mxPoint x="820" y="520" />
              <mxPoint x="820" y="520" />
            </Array>
          </mxGeometry>
        </mxCell>
        <mxCell id="t9KaYm3IcildCPDt8CfC-43" style="edgeStyle=orthogonalEdgeStyle;rounded=0;orthogonalLoop=1;jettySize=auto;html=1;" edge="1" parent="1">
          <mxGeometry relative="1" as="geometry">
            <mxPoint x="750" y="520" as="targetPoint" />
            <mxPoint x="750" y="395" as="sourcePoint" />
            <Array as="points">
              <mxPoint x="750" y="365" />
              <mxPoint x="750" y="365" />
            </Array>
          </mxGeometry>
        </mxCell>
        <mxCell id="t9KaYm3IcildCPDt8CfC-46" value="Authorizer: Gateway calls the authoritzer lambda for every request for athorization" style="text;html=1;align=center;verticalAlign=middle;whiteSpace=wrap;rounded=0;" vertex="1" parent="1">
          <mxGeometry x="590" y="150" width="130" height="70" as="geometry" />
        </mxCell>
        <mxCell id="t9KaYm3IcildCPDt8CfC-47" value="" style="outlineConnect=0;dashed=0;verticalLabelPosition=bottom;verticalAlign=top;align=center;html=1;shape=mxgraph.aws3.lambda_function;fillColor=#F58534;gradientColor=none;" vertex="1" parent="1">
          <mxGeometry x="890" y="20" width="69" height="72" as="geometry" />
        </mxCell>
        <mxCell id="t9KaYm3IcildCPDt8CfC-48" value="lambda auth" style="text;html=1;align=center;verticalAlign=middle;whiteSpace=wrap;rounded=0;" vertex="1" parent="1">
          <mxGeometry x="894.5" y="110" width="60" height="30" as="geometry" />
        </mxCell>
        <mxCell id="t9KaYm3IcildCPDt8CfC-49" value="" style="edgeStyle=segmentEdgeStyle;endArrow=classic;html=1;curved=0;rounded=0;endSize=8;startSize=8;sourcePerimeterSpacing=0;targetPerimeterSpacing=0;" edge="1" parent="1">
          <mxGeometry width="100" relative="1" as="geometry">
            <mxPoint x="750" y="50" as="sourcePoint" />
            <mxPoint x="880" y="50" as="targetPoint" />
            <Array as="points">
              <mxPoint x="840" y="50" />
              <mxPoint x="840" y="50" />
            </Array>
          </mxGeometry>
        </mxCell>
        <mxCell id="t9KaYm3IcildCPDt8CfC-51" value="" style="endArrow=classic;html=1;rounded=0;" edge="1" parent="1">
          <mxGeometry width="50" height="50" relative="1" as="geometry">
            <mxPoint x="750" y="200" as="sourcePoint" />
            <mxPoint x="750" y="50" as="targetPoint" />
          </mxGeometry>
        </mxCell>
        <mxCell id="t9KaYm3IcildCPDt8CfC-53" value="" style="endArrow=none;html=1;rounded=0;" edge="1" parent="1">
          <mxGeometry width="50" height="50" relative="1" as="geometry">
            <mxPoint x="750" y="370" as="sourcePoint" />
            <mxPoint x="750" y="200" as="targetPoint" />
          </mxGeometry>
        </mxCell>
        <mxCell id="t9KaYm3IcildCPDt8CfC-63" style="edgeStyle=orthogonalEdgeStyle;rounded=0;orthogonalLoop=1;jettySize=auto;html=1;" edge="1" parent="1" source="t9KaYm3IcildCPDt8CfC-55">
          <mxGeometry relative="1" as="geometry">
            <mxPoint x="1310" y="270" as="targetPoint" />
          </mxGeometry>
        </mxCell>
        <mxCell id="t9KaYm3IcildCPDt8CfC-55" value="Amazon SQS" style="sketch=0;points=[[0,0,0],[0.25,0,0],[0.5,0,0],[0.75,0,0],[1,0,0],[0,1,0],[0.25,1,0],[0.5,1,0],[0.75,1,0],[1,1,0],[0,0.25,0],[0,0.5,0],[0,0.75,0],[1,0.25,0],[1,0.5,0],[1,0.75,0]];outlineConnect=0;fontColor=#232F3E;fillColor=#E7157B;strokeColor=#ffffff;dashed=0;verticalLabelPosition=bottom;verticalAlign=top;align=center;html=1;fontSize=12;fontStyle=0;aspect=fixed;shape=mxgraph.aws4.resourceIcon;resIcon=mxgraph.aws4.sqs;" vertex="1" parent="1">
          <mxGeometry x="1130" y="220" width="100" height="100" as="geometry" />
        </mxCell>
        <mxCell id="t9KaYm3IcildCPDt8CfC-60" style="edgeStyle=orthogonalEdgeStyle;rounded=0;orthogonalLoop=1;jettySize=auto;html=1;entryX=0;entryY=0.5;entryDx=0;entryDy=0;entryPerimeter=0;" edge="1" parent="1" source="t9KaYm3IcildCPDt8CfC-22" target="t9KaYm3IcildCPDt8CfC-55">
          <mxGeometry relative="1" as="geometry" />
        </mxCell>
        <mxCell id="t9KaYm3IcildCPDt8CfC-61" style="edgeStyle=orthogonalEdgeStyle;rounded=0;orthogonalLoop=1;jettySize=auto;html=1;entryX=0;entryY=0.5;entryDx=0;entryDy=0;entryPerimeter=0;" edge="1" parent="1" source="t9KaYm3IcildCPDt8CfC-24" target="t9KaYm3IcildCPDt8CfC-55">
          <mxGeometry relative="1" as="geometry" />
        </mxCell>
        <mxCell id="t9KaYm3IcildCPDt8CfC-65" value="Actor" style="shape=umlActor;verticalLabelPosition=bottom;verticalAlign=top;html=1;outlineConnect=0;" vertex="1" parent="1">
          <mxGeometry x="20" y="246" width="30" height="60" as="geometry" />
        </mxCell>
        <mxCell id="t9KaYm3IcildCPDt8CfC-67" value="Actor" style="shape=umlActor;verticalLabelPosition=bottom;verticalAlign=top;html=1;outlineConnect=0;" vertex="1" parent="1">
          <mxGeometry x="60" y="305" width="30" height="60" as="geometry" />
        </mxCell>
      </root>
    </mxGraphModel>
  </diagram>
</mxfile>
